<mxfile host="app.diagrams.net" agent="Mozilla/5.0 (Windows NT 10.0; Win64; x64) AppleWebKit/537.36 (KHTML, like Gecko) Chrome/134.0.0.0 Safari/537.36" version="26.1.3">
  <diagram name="Page-1" id="74e2e168-ea6b-b213-b513-2b3c1d86103e">
    <mxGraphModel dx="1050" dy="557" grid="1" gridSize="10" guides="1" tooltips="1" connect="1" arrows="1" fold="1" page="1" pageScale="1" pageWidth="1100" pageHeight="850" background="none" math="0" shadow="0">
      <root>
        <mxCell id="0" />
        <mxCell id="1" parent="0" />
        <mxCell id="77e6c97f196da883-1" value="&lt;font style=&quot;font-size: 18px;&quot;&gt;巡检计划修改&lt;/font&gt;" style="swimlane;html=1;childLayout=stackLayout;startSize=20;rounded=0;shadow=0;labelBackgroundColor=none;strokeWidth=1;fontFamily=Verdana;fontSize=8;align=center;" parent="1" vertex="1">
          <mxGeometry x="70" y="20" width="960" height="1290" as="geometry" />
        </mxCell>
        <mxCell id="77e6c97f196da883-2" value="接收请求" style="swimlane;html=1;startSize=20;" parent="77e6c97f196da883-1" vertex="1">
          <mxGeometry y="20" width="160" height="1270" as="geometry">
            <mxRectangle y="20" width="40" height="730" as="alternateBounds" />
          </mxGeometry>
        </mxCell>
        <mxCell id="OuAqoAczvBelTa_8rbJ0-2" style="edgeStyle=orthogonalEdgeStyle;rounded=0;orthogonalLoop=1;jettySize=auto;html=1;exitX=0.5;exitY=1;exitDx=0;exitDy=0;entryX=0.5;entryY=0;entryDx=0;entryDy=0;" edge="1" parent="77e6c97f196da883-2" source="77e6c97f196da883-8" target="cfTg0l-f0pAShHveTOmt-1">
          <mxGeometry relative="1" as="geometry" />
        </mxCell>
        <mxCell id="77e6c97f196da883-8" value="&lt;font style=&quot;font-size: 12px;&quot;&gt;开始&lt;/font&gt;" style="rounded=1;whiteSpace=wrap;html=1;shadow=0;labelBackgroundColor=none;strokeWidth=1;fontFamily=Verdana;fontSize=8;align=center;" parent="77e6c97f196da883-2" vertex="1">
          <mxGeometry x="20" y="60" width="100" height="60" as="geometry" />
        </mxCell>
        <mxCell id="cfTg0l-f0pAShHveTOmt-1" value="&lt;font style=&quot;font-size: 12px;&quot;&gt;巡检计划查询&lt;/font&gt;" style="rhombus;whiteSpace=wrap;html=1;rounded=0;shadow=0;labelBackgroundColor=none;strokeWidth=1;fontFamily=Verdana;fontSize=8;align=center;" parent="77e6c97f196da883-2" vertex="1">
          <mxGeometry x="20" y="160" width="100" height="75" as="geometry" />
        </mxCell>
        <mxCell id="cfTg0l-f0pAShHveTOmt-4" style="edgeStyle=orthogonalEdgeStyle;rounded=0;orthogonalLoop=1;jettySize=auto;html=1;exitX=0.5;exitY=1;exitDx=0;exitDy=0;entryX=0.5;entryY=0;entryDx=0;entryDy=0;" parent="77e6c97f196da883-2" source="cfTg0l-f0pAShHveTOmt-1" edge="1" target="zkKsR5GlTw2Tc259dVME-4">
          <mxGeometry relative="1" as="geometry">
            <mxPoint x="70" y="980" as="targetPoint" />
          </mxGeometry>
        </mxCell>
        <mxCell id="cfTg0l-f0pAShHveTOmt-24" value="未查询到" style="edgeLabel;html=1;align=center;verticalAlign=middle;resizable=0;points=[];" parent="cfTg0l-f0pAShHveTOmt-4" vertex="1" connectable="0">
          <mxGeometry x="-0.24" y="-1" relative="1" as="geometry">
            <mxPoint as="offset" />
          </mxGeometry>
        </mxCell>
        <mxCell id="zkKsR5GlTw2Tc259dVME-4" value="&lt;span style=&quot;font-size: 12px;&quot;&gt;失败返回&lt;/span&gt;" style="whiteSpace=wrap;html=1;fontSize=8;fontFamily=Verdana;rounded=0;shadow=0;labelBackgroundColor=none;strokeWidth=1;" parent="77e6c97f196da883-2" vertex="1">
          <mxGeometry x="20" y="1175" width="100" height="60" as="geometry" />
        </mxCell>
        <mxCell id="77e6c97f196da883-3" value="班组人员查询" style="swimlane;html=1;startSize=20;" parent="77e6c97f196da883-1" vertex="1">
          <mxGeometry x="160" y="20" width="160" height="1270" as="geometry" />
        </mxCell>
        <mxCell id="cfTg0l-f0pAShHveTOmt-27" value="&lt;span style=&quot;font-size: 12px;&quot;&gt;查询班组人员&lt;/span&gt;" style="rhombus;whiteSpace=wrap;html=1;rounded=0;shadow=0;labelBackgroundColor=none;strokeWidth=1;fontFamily=Verdana;fontSize=8;align=center;" parent="77e6c97f196da883-3" vertex="1">
          <mxGeometry x="30" y="160" width="100" height="75" as="geometry" />
        </mxCell>
        <mxCell id="cfTg0l-f0pAShHveTOmt-30" value="" style="edgeStyle=orthogonalEdgeStyle;rounded=0;orthogonalLoop=1;jettySize=auto;html=1;" parent="77e6c97f196da883-3" source="cfTg0l-f0pAShHveTOmt-27" edge="1">
          <mxGeometry relative="1" as="geometry">
            <mxPoint x="-90" y="300" as="targetPoint" />
            <Array as="points">
              <mxPoint x="80" y="300" />
              <mxPoint x="-90" y="300" />
            </Array>
          </mxGeometry>
        </mxCell>
        <mxCell id="cfTg0l-f0pAShHveTOmt-47" value="未查询到" style="edgeLabel;html=1;align=center;verticalAlign=middle;resizable=0;points=[];" parent="cfTg0l-f0pAShHveTOmt-30" vertex="1" connectable="0">
          <mxGeometry x="-0.8288" y="-1" relative="1" as="geometry">
            <mxPoint as="offset" />
          </mxGeometry>
        </mxCell>
        <mxCell id="77e6c97f196da883-5" value="检修时间修改" style="swimlane;html=1;startSize=20;" parent="77e6c97f196da883-1" vertex="1">
          <mxGeometry x="320" y="20" width="160" height="1270" as="geometry" />
        </mxCell>
        <mxCell id="OuAqoAczvBelTa_8rbJ0-12" style="edgeStyle=orthogonalEdgeStyle;rounded=0;orthogonalLoop=1;jettySize=auto;html=1;exitX=0.5;exitY=1;exitDx=0;exitDy=0;entryX=0.5;entryY=0;entryDx=0;entryDy=0;" edge="1" parent="77e6c97f196da883-5" source="cfTg0l-f0pAShHveTOmt-33" target="OuAqoAczvBelTa_8rbJ0-11">
          <mxGeometry relative="1" as="geometry" />
        </mxCell>
        <mxCell id="OuAqoAczvBelTa_8rbJ0-13" value="是" style="edgeLabel;html=1;align=center;verticalAlign=middle;resizable=0;points=[];" vertex="1" connectable="0" parent="OuAqoAczvBelTa_8rbJ0-12">
          <mxGeometry x="-0.1597" relative="1" as="geometry">
            <mxPoint y="1" as="offset" />
          </mxGeometry>
        </mxCell>
        <mxCell id="cfTg0l-f0pAShHveTOmt-33" value="&lt;div&gt;&lt;span style=&quot;font-size: 12px;&quot;&gt;是否修改&lt;/span&gt;&lt;span style=&quot;font-size: 12px;&quot;&gt;&lt;/span&gt;&lt;/div&gt;&lt;span style=&quot;font-size: 12px;&quot;&gt;检修时间&lt;/span&gt;&lt;div&gt;&lt;br&gt;&lt;/div&gt;" style="rhombus;whiteSpace=wrap;html=1;rounded=0;shadow=0;labelBackgroundColor=none;strokeWidth=1;fontFamily=Verdana;fontSize=8;align=center;" parent="77e6c97f196da883-5" vertex="1">
          <mxGeometry x="30" y="160" width="100" height="75" as="geometry" />
        </mxCell>
        <mxCell id="OuAqoAczvBelTa_8rbJ0-15" style="edgeStyle=orthogonalEdgeStyle;rounded=0;orthogonalLoop=1;jettySize=auto;html=1;exitX=0.5;exitY=1;exitDx=0;exitDy=0;entryX=0.5;entryY=0;entryDx=0;entryDy=0;" edge="1" parent="77e6c97f196da883-5" source="OuAqoAczvBelTa_8rbJ0-11" target="OuAqoAczvBelTa_8rbJ0-14">
          <mxGeometry relative="1" as="geometry" />
        </mxCell>
        <mxCell id="OuAqoAczvBelTa_8rbJ0-11" value="&lt;span style=&quot;font-size: 12px;&quot;&gt;重新生成检修计划&lt;/span&gt;&lt;div&gt;&lt;span style=&quot;font-size: 12px;&quot;&gt;工作开始结束时间&lt;/span&gt;&lt;/div&gt;&lt;div&gt;&lt;span style=&quot;font-size: 12px;&quot;&gt;停电开始结束时间&lt;/span&gt;&lt;/div&gt;" style="whiteSpace=wrap;html=1;fontSize=8;fontFamily=Verdana;rounded=0;shadow=0;labelBackgroundColor=none;strokeWidth=1;" vertex="1" parent="77e6c97f196da883-5">
          <mxGeometry x="30" y="270" width="100" height="60" as="geometry" />
        </mxCell>
        <mxCell id="OuAqoAczvBelTa_8rbJ0-24" style="edgeStyle=orthogonalEdgeStyle;rounded=0;orthogonalLoop=1;jettySize=auto;html=1;exitX=0.5;exitY=1;exitDx=0;exitDy=0;" edge="1" parent="77e6c97f196da883-5" source="OuAqoAczvBelTa_8rbJ0-14">
          <mxGeometry relative="1" as="geometry">
            <mxPoint x="150" y="200" as="targetPoint" />
          </mxGeometry>
        </mxCell>
        <mxCell id="OuAqoAczvBelTa_8rbJ0-14" value="&lt;span style=&quot;font-size: 12px;&quot;&gt;检修计划工作&lt;/span&gt;&lt;div&gt;&lt;span style=&quot;font-size: 12px;&quot;&gt;更新&lt;/span&gt;&lt;span style=&quot;font-size: 12px; background-color: transparent; color: light-dark(rgb(0, 0, 0), rgb(255, 255, 255));&quot;&gt;计划工作开始结束时间&lt;/span&gt;&lt;/div&gt;" style="whiteSpace=wrap;html=1;fontSize=8;fontFamily=Verdana;rounded=0;shadow=0;labelBackgroundColor=none;strokeWidth=1;" vertex="1" parent="77e6c97f196da883-5">
          <mxGeometry x="30" y="360" width="100" height="60" as="geometry" />
        </mxCell>
        <mxCell id="77e6c97f196da883-6" value="检修工作处理" style="swimlane;html=1;startSize=20;" parent="77e6c97f196da883-1" vertex="1">
          <mxGeometry x="480" y="20" width="160" height="1270" as="geometry" />
        </mxCell>
        <mxCell id="OuAqoAczvBelTa_8rbJ0-18" style="edgeStyle=orthogonalEdgeStyle;rounded=0;orthogonalLoop=1;jettySize=auto;html=1;exitX=0.5;exitY=1;exitDx=0;exitDy=0;entryX=0.5;entryY=0;entryDx=0;entryDy=0;" edge="1" parent="77e6c97f196da883-6" source="OuAqoAczvBelTa_8rbJ0-16" target="OuAqoAczvBelTa_8rbJ0-17">
          <mxGeometry relative="1" as="geometry" />
        </mxCell>
        <mxCell id="OuAqoAczvBelTa_8rbJ0-19" value="是" style="edgeLabel;html=1;align=center;verticalAlign=middle;resizable=0;points=[];" vertex="1" connectable="0" parent="OuAqoAczvBelTa_8rbJ0-18">
          <mxGeometry x="-0.0924" relative="1" as="geometry">
            <mxPoint y="-1" as="offset" />
          </mxGeometry>
        </mxCell>
        <mxCell id="OuAqoAczvBelTa_8rbJ0-32" style="edgeStyle=orthogonalEdgeStyle;rounded=0;orthogonalLoop=1;jettySize=auto;html=1;exitX=1;exitY=0.5;exitDx=0;exitDy=0;entryX=1;entryY=0.5;entryDx=0;entryDy=0;" edge="1" parent="77e6c97f196da883-6" source="OuAqoAczvBelTa_8rbJ0-16" target="cfTg0l-f0pAShHveTOmt-64">
          <mxGeometry relative="1" as="geometry">
            <mxPoint x="140" y="660" as="targetPoint" />
            <Array as="points">
              <mxPoint x="150" y="197" />
              <mxPoint x="150" y="658" />
              <mxPoint x="130" y="658" />
            </Array>
          </mxGeometry>
        </mxCell>
        <mxCell id="OuAqoAczvBelTa_8rbJ0-33" value="否" style="edgeLabel;html=1;align=center;verticalAlign=middle;resizable=0;points=[];" vertex="1" connectable="0" parent="OuAqoAczvBelTa_8rbJ0-32">
          <mxGeometry x="-0.1736" relative="1" as="geometry">
            <mxPoint as="offset" />
          </mxGeometry>
        </mxCell>
        <mxCell id="OuAqoAczvBelTa_8rbJ0-16" value="&lt;span style=&quot;font-size: 12px;&quot;&gt;是否存在&lt;br&gt;要删除的&lt;/span&gt;&lt;div&gt;&lt;span style=&quot;font-size: 12px;&quot;&gt;检修工作&lt;/span&gt;&lt;/div&gt;" style="rhombus;whiteSpace=wrap;html=1;rounded=0;shadow=0;labelBackgroundColor=none;strokeWidth=1;fontFamily=Verdana;fontSize=8;align=center;" vertex="1" parent="77e6c97f196da883-6">
          <mxGeometry x="30" y="160" width="100" height="75" as="geometry" />
        </mxCell>
        <mxCell id="OuAqoAczvBelTa_8rbJ0-21" style="edgeStyle=orthogonalEdgeStyle;rounded=0;orthogonalLoop=1;jettySize=auto;html=1;exitX=0.5;exitY=1;exitDx=0;exitDy=0;" edge="1" parent="77e6c97f196da883-6" source="OuAqoAczvBelTa_8rbJ0-17" target="OuAqoAczvBelTa_8rbJ0-20">
          <mxGeometry relative="1" as="geometry" />
        </mxCell>
        <mxCell id="OuAqoAczvBelTa_8rbJ0-17" value="&lt;span style=&quot;font-size: 12px;&quot;&gt;现场勘察任务&lt;/span&gt;&lt;div&gt;&lt;span style=&quot;font-size: 12px;&quot;&gt;状态更新&lt;/span&gt;&lt;/div&gt;" style="whiteSpace=wrap;html=1;fontSize=8;fontFamily=Verdana;rounded=0;shadow=0;labelBackgroundColor=none;strokeWidth=1;" vertex="1" parent="77e6c97f196da883-6">
          <mxGeometry x="30" y="270" width="100" height="60" as="geometry" />
        </mxCell>
        <mxCell id="OuAqoAczvBelTa_8rbJ0-23" style="edgeStyle=orthogonalEdgeStyle;rounded=0;orthogonalLoop=1;jettySize=auto;html=1;exitX=0.5;exitY=1;exitDx=0;exitDy=0;entryX=0.5;entryY=0;entryDx=0;entryDy=0;" edge="1" parent="77e6c97f196da883-6" source="OuAqoAczvBelTa_8rbJ0-20" target="OuAqoAczvBelTa_8rbJ0-22">
          <mxGeometry relative="1" as="geometry" />
        </mxCell>
        <mxCell id="OuAqoAczvBelTa_8rbJ0-20" value="&lt;span style=&quot;font-size: 12px;&quot;&gt;删除对应的&lt;/span&gt;&lt;div&gt;&lt;span style=&quot;font-size: 12px;&quot;&gt;检修计划于工作任务关联表数据&lt;/span&gt;&lt;/div&gt;" style="whiteSpace=wrap;html=1;fontSize=8;fontFamily=Verdana;rounded=0;shadow=0;labelBackgroundColor=none;strokeWidth=1;" vertex="1" parent="77e6c97f196da883-6">
          <mxGeometry x="30" y="360" width="100" height="60" as="geometry" />
        </mxCell>
        <mxCell id="OuAqoAczvBelTa_8rbJ0-26" style="edgeStyle=orthogonalEdgeStyle;rounded=0;orthogonalLoop=1;jettySize=auto;html=1;exitX=0.5;exitY=1;exitDx=0;exitDy=0;entryX=0.5;entryY=0;entryDx=0;entryDy=0;" edge="1" parent="77e6c97f196da883-6" source="OuAqoAczvBelTa_8rbJ0-22" target="OuAqoAczvBelTa_8rbJ0-25">
          <mxGeometry relative="1" as="geometry" />
        </mxCell>
        <mxCell id="OuAqoAczvBelTa_8rbJ0-22" value="&lt;span style=&quot;font-size: 12px;&quot;&gt;更新对应的&lt;/span&gt;&lt;div&gt;&lt;span style=&quot;font-size: 12px;&quot;&gt;检修工作任务表数据的状态&lt;/span&gt;&lt;/div&gt;" style="whiteSpace=wrap;html=1;fontSize=8;fontFamily=Verdana;rounded=0;shadow=0;labelBackgroundColor=none;strokeWidth=1;" vertex="1" parent="77e6c97f196da883-6">
          <mxGeometry x="30" y="450" width="100" height="60" as="geometry" />
        </mxCell>
        <mxCell id="OuAqoAczvBelTa_8rbJ0-34" style="edgeStyle=orthogonalEdgeStyle;rounded=0;orthogonalLoop=1;jettySize=auto;html=1;exitX=0.5;exitY=1;exitDx=0;exitDy=0;entryX=0.5;entryY=0;entryDx=0;entryDy=0;" edge="1" parent="77e6c97f196da883-6" source="OuAqoAczvBelTa_8rbJ0-25" target="cfTg0l-f0pAShHveTOmt-64">
          <mxGeometry relative="1" as="geometry" />
        </mxCell>
        <mxCell id="OuAqoAczvBelTa_8rbJ0-25" value="&lt;span style=&quot;font-size: 12px;&quot;&gt;重新设置&lt;/span&gt;&lt;div&gt;&lt;span style=&quot;font-size: 12px;&quot;&gt;检修计划的工作内容字段&lt;/span&gt;&lt;/div&gt;" style="whiteSpace=wrap;html=1;fontSize=8;fontFamily=Verdana;rounded=0;shadow=0;labelBackgroundColor=none;strokeWidth=1;" vertex="1" parent="77e6c97f196da883-6">
          <mxGeometry x="30" y="540" width="100" height="60" as="geometry" />
        </mxCell>
        <mxCell id="OuAqoAczvBelTa_8rbJ0-27" value="&lt;span style=&quot;font-size: 12px;&quot;&gt;是否存在&lt;/span&gt;&lt;div&gt;&lt;span style=&quot;font-size: 12px;&quot;&gt;新增&lt;/span&gt;&lt;span style=&quot;font-size: 12px; background-color: transparent; color: light-dark(rgb(0, 0, 0), rgb(255, 255, 255));&quot;&gt;检修任务&lt;/span&gt;&lt;/div&gt;" style="rhombus;whiteSpace=wrap;html=1;rounded=0;shadow=0;labelBackgroundColor=none;strokeWidth=1;fontFamily=Verdana;fontSize=8;align=center;" vertex="1" parent="77e6c97f196da883-6">
          <mxGeometry x="30" y="820" width="100" height="75" as="geometry" />
        </mxCell>
        <mxCell id="cfTg0l-f0pAShHveTOmt-73" value="&lt;div&gt;&lt;span style=&quot;font-size: 12px;&quot;&gt;新增&lt;/span&gt;&lt;/div&gt;&lt;div&gt;&lt;span style=&quot;font-size: 12px;&quot;&gt;检修工作任务表数据&lt;/span&gt;&lt;/div&gt;" style="whiteSpace=wrap;html=1;fontSize=8;fontFamily=Verdana;rounded=0;shadow=0;labelBackgroundColor=none;strokeWidth=1;" parent="77e6c97f196da883-6" vertex="1">
          <mxGeometry x="30" y="920" width="100" height="60" as="geometry" />
        </mxCell>
        <mxCell id="cfTg0l-f0pAShHveTOmt-76" value="&lt;span style=&quot;font-size: 12px;&quot;&gt;新增检修计划于工作任务关联&lt;/span&gt;" style="whiteSpace=wrap;html=1;fontSize=8;fontFamily=Verdana;rounded=0;shadow=0;labelBackgroundColor=none;strokeWidth=1;" parent="77e6c97f196da883-6" vertex="1">
          <mxGeometry x="30" y="1010" width="100" height="60" as="geometry" />
        </mxCell>
        <mxCell id="OuAqoAczvBelTa_8rbJ0-53" style="edgeStyle=orthogonalEdgeStyle;rounded=0;orthogonalLoop=1;jettySize=auto;html=1;entryX=1;entryY=0.5;entryDx=0;entryDy=0;" edge="1" parent="77e6c97f196da883-6" source="cfTg0l-f0pAShHveTOmt-63" target="cfTg0l-f0pAShHveTOmt-64">
          <mxGeometry relative="1" as="geometry">
            <Array as="points">
              <mxPoint x="80" y="657" />
            </Array>
          </mxGeometry>
        </mxCell>
        <mxCell id="cfTg0l-f0pAShHveTOmt-63" value="&lt;div&gt;&lt;span style=&quot;font-size: 12px;&quot;&gt;新增检修计划于工作任务关联&lt;/span&gt;&lt;/div&gt;" style="whiteSpace=wrap;html=1;fontSize=8;fontFamily=Verdana;rounded=0;shadow=0;labelBackgroundColor=none;strokeWidth=1;" parent="77e6c97f196da883-6" vertex="1">
          <mxGeometry x="30" y="730" width="100" height="60" as="geometry" />
        </mxCell>
        <mxCell id="OuAqoAczvBelTa_8rbJ0-56" style="edgeStyle=orthogonalEdgeStyle;rounded=0;orthogonalLoop=1;jettySize=auto;html=1;exitX=0;exitY=0.5;exitDx=0;exitDy=0;entryX=0;entryY=0.5;entryDx=0;entryDy=0;" edge="1" parent="77e6c97f196da883-6" source="cfTg0l-f0pAShHveTOmt-64" target="OuAqoAczvBelTa_8rbJ0-27">
          <mxGeometry relative="1" as="geometry" />
        </mxCell>
        <mxCell id="OuAqoAczvBelTa_8rbJ0-57" value="否" style="edgeLabel;html=1;align=center;verticalAlign=middle;resizable=0;points=[];" vertex="1" connectable="0" parent="OuAqoAczvBelTa_8rbJ0-56">
          <mxGeometry x="-0.6375" relative="1" as="geometry">
            <mxPoint as="offset" />
          </mxGeometry>
        </mxCell>
        <mxCell id="cfTg0l-f0pAShHveTOmt-64" value="&lt;span style=&quot;font-size: 12px;&quot;&gt;是否存在&lt;/span&gt;&lt;div&gt;&lt;span style=&quot;font-size: 12px;&quot;&gt;新增来字缺陷隐患&lt;/span&gt;&lt;/div&gt;&lt;div&gt;&lt;span style=&quot;font-size: 12px;&quot;&gt;的检修任务&lt;/span&gt;&lt;/div&gt;" style="rhombus;whiteSpace=wrap;html=1;rounded=0;shadow=0;labelBackgroundColor=none;strokeWidth=1;fontFamily=Verdana;fontSize=8;align=center;" parent="77e6c97f196da883-6" vertex="1">
          <mxGeometry x="30" y="620" width="100" height="75" as="geometry" />
        </mxCell>
        <mxCell id="OuAqoAczvBelTa_8rbJ0-30" style="edgeStyle=orthogonalEdgeStyle;rounded=0;orthogonalLoop=1;jettySize=auto;html=1;exitX=0.5;exitY=1;exitDx=0;exitDy=0;entryX=0.5;entryY=0;entryDx=0;entryDy=0;" edge="1" parent="77e6c97f196da883-6" source="OuAqoAczvBelTa_8rbJ0-27" target="cfTg0l-f0pAShHveTOmt-73">
          <mxGeometry relative="1" as="geometry" />
        </mxCell>
        <mxCell id="OuAqoAczvBelTa_8rbJ0-31" value="是" style="edgeLabel;html=1;align=center;verticalAlign=middle;resizable=0;points=[];" vertex="1" connectable="0" parent="OuAqoAczvBelTa_8rbJ0-30">
          <mxGeometry x="-0.2" relative="1" as="geometry">
            <mxPoint as="offset" />
          </mxGeometry>
        </mxCell>
        <mxCell id="cfTg0l-f0pAShHveTOmt-77" style="edgeStyle=orthogonalEdgeStyle;rounded=0;orthogonalLoop=1;jettySize=auto;html=1;exitX=0.5;exitY=1;exitDx=0;exitDy=0;entryX=0.5;entryY=0;entryDx=0;entryDy=0;" parent="77e6c97f196da883-6" source="cfTg0l-f0pAShHveTOmt-73" target="cfTg0l-f0pAShHveTOmt-76" edge="1">
          <mxGeometry relative="1" as="geometry" />
        </mxCell>
        <mxCell id="cfTg0l-f0pAShHveTOmt-74" style="edgeStyle=orthogonalEdgeStyle;rounded=0;orthogonalLoop=1;jettySize=auto;html=1;exitX=0.5;exitY=1;exitDx=0;exitDy=0;entryX=0.5;entryY=0;entryDx=0;entryDy=0;" parent="77e6c97f196da883-6" source="cfTg0l-f0pAShHveTOmt-63" target="OuAqoAczvBelTa_8rbJ0-27" edge="1">
          <mxGeometry relative="1" as="geometry">
            <mxPoint x="240" y="360" as="targetPoint" />
          </mxGeometry>
        </mxCell>
        <mxCell id="cfTg0l-f0pAShHveTOmt-70" style="edgeStyle=orthogonalEdgeStyle;rounded=0;orthogonalLoop=1;jettySize=auto;html=1;exitX=0.5;exitY=1;exitDx=0;exitDy=0;entryX=0.5;entryY=0;entryDx=0;entryDy=0;" parent="77e6c97f196da883-6" source="cfTg0l-f0pAShHveTOmt-64" target="cfTg0l-f0pAShHveTOmt-63" edge="1">
          <mxGeometry relative="1" as="geometry" />
        </mxCell>
        <mxCell id="cfTg0l-f0pAShHveTOmt-71" value="是" style="edgeLabel;html=1;align=center;verticalAlign=middle;resizable=0;points=[];" parent="cfTg0l-f0pAShHveTOmt-70" vertex="1" connectable="0">
          <mxGeometry x="-0.168" y="-1" relative="1" as="geometry">
            <mxPoint as="offset" />
          </mxGeometry>
        </mxCell>
        <mxCell id="77e6c97f196da883-7" value="停电分析" style="swimlane;html=1;startSize=20;" parent="77e6c97f196da883-1" vertex="1">
          <mxGeometry x="640" y="20" width="160" height="1270" as="geometry" />
        </mxCell>
        <mxCell id="OuAqoAczvBelTa_8rbJ0-41" style="edgeStyle=orthogonalEdgeStyle;rounded=0;orthogonalLoop=1;jettySize=auto;html=1;exitX=0.5;exitY=1;exitDx=0;exitDy=0;entryX=0.5;entryY=0;entryDx=0;entryDy=0;" edge="1" parent="77e6c97f196da883-7" source="OuAqoAczvBelTa_8rbJ0-35" target="OuAqoAczvBelTa_8rbJ0-36">
          <mxGeometry relative="1" as="geometry" />
        </mxCell>
        <mxCell id="OuAqoAczvBelTa_8rbJ0-47" value="失败" style="edgeLabel;html=1;align=center;verticalAlign=middle;resizable=0;points=[];" vertex="1" connectable="0" parent="OuAqoAczvBelTa_8rbJ0-41">
          <mxGeometry x="-0.215" relative="1" as="geometry">
            <mxPoint as="offset" />
          </mxGeometry>
        </mxCell>
        <mxCell id="OuAqoAczvBelTa_8rbJ0-49" style="edgeStyle=orthogonalEdgeStyle;rounded=0;orthogonalLoop=1;jettySize=auto;html=1;exitX=0;exitY=0.5;exitDx=0;exitDy=0;" edge="1" parent="77e6c97f196da883-7" source="OuAqoAczvBelTa_8rbJ0-35">
          <mxGeometry relative="1" as="geometry">
            <mxPoint x="-570" y="1145.0526829769738" as="targetPoint" />
            <Array as="points">
              <mxPoint x="20" y="197" />
              <mxPoint x="20" y="1145" />
            </Array>
          </mxGeometry>
        </mxCell>
        <mxCell id="OuAqoAczvBelTa_8rbJ0-50" value="失败" style="edgeLabel;html=1;align=center;verticalAlign=middle;resizable=0;points=[];" vertex="1" connectable="0" parent="OuAqoAczvBelTa_8rbJ0-49">
          <mxGeometry x="-0.9933" y="1" relative="1" as="geometry">
            <mxPoint as="offset" />
          </mxGeometry>
        </mxCell>
        <mxCell id="OuAqoAczvBelTa_8rbJ0-35" value="&lt;span style=&quot;font-size: 12px;&quot;&gt;调用中台接口&lt;/span&gt;&lt;div&gt;&lt;span style=&quot;font-size: 12px;&quot;&gt;分析供电范围&lt;/span&gt;&lt;/div&gt;" style="rhombus;whiteSpace=wrap;html=1;rounded=0;shadow=0;labelBackgroundColor=none;strokeWidth=1;fontFamily=Verdana;fontSize=8;align=center;" vertex="1" parent="77e6c97f196da883-7">
          <mxGeometry x="30" y="160" width="100" height="75" as="geometry" />
        </mxCell>
        <mxCell id="OuAqoAczvBelTa_8rbJ0-42" style="edgeStyle=orthogonalEdgeStyle;rounded=0;orthogonalLoop=1;jettySize=auto;html=1;exitX=0.5;exitY=1;exitDx=0;exitDy=0;entryX=0.5;entryY=0;entryDx=0;entryDy=0;" edge="1" parent="77e6c97f196da883-7" source="OuAqoAczvBelTa_8rbJ0-36" target="OuAqoAczvBelTa_8rbJ0-37">
          <mxGeometry relative="1" as="geometry" />
        </mxCell>
        <mxCell id="OuAqoAczvBelTa_8rbJ0-36" value="&lt;div&gt;&lt;span style=&quot;font-size: 12px;&quot;&gt;停电范围分析&lt;/span&gt;&lt;/div&gt;" style="whiteSpace=wrap;html=1;fontSize=8;fontFamily=Verdana;rounded=0;shadow=0;labelBackgroundColor=none;strokeWidth=1;" vertex="1" parent="77e6c97f196da883-7">
          <mxGeometry x="30" y="270" width="100" height="60" as="geometry" />
        </mxCell>
        <mxCell id="OuAqoAczvBelTa_8rbJ0-43" style="edgeStyle=orthogonalEdgeStyle;rounded=0;orthogonalLoop=1;jettySize=auto;html=1;exitX=0.5;exitY=1;exitDx=0;exitDy=0;entryX=0.5;entryY=0;entryDx=0;entryDy=0;" edge="1" parent="77e6c97f196da883-7" source="OuAqoAczvBelTa_8rbJ0-37" target="OuAqoAczvBelTa_8rbJ0-38">
          <mxGeometry relative="1" as="geometry" />
        </mxCell>
        <mxCell id="OuAqoAczvBelTa_8rbJ0-37" value="&lt;div&gt;&lt;span style=&quot;font-size: 12px;&quot;&gt;停电边界设备&lt;/span&gt;&lt;/div&gt;&lt;div&gt;&lt;span style=&quot;font-size: 12px;&quot;&gt;数据对象组装&lt;/span&gt;&lt;/div&gt;" style="whiteSpace=wrap;html=1;fontSize=8;fontFamily=Verdana;rounded=0;shadow=0;labelBackgroundColor=none;strokeWidth=1;" vertex="1" parent="77e6c97f196da883-7">
          <mxGeometry x="30" y="360" width="100" height="60" as="geometry" />
        </mxCell>
        <mxCell id="OuAqoAczvBelTa_8rbJ0-44" style="edgeStyle=orthogonalEdgeStyle;rounded=0;orthogonalLoop=1;jettySize=auto;html=1;exitX=0.5;exitY=1;exitDx=0;exitDy=0;entryX=0.5;entryY=0;entryDx=0;entryDy=0;" edge="1" parent="77e6c97f196da883-7" source="OuAqoAczvBelTa_8rbJ0-38" target="OuAqoAczvBelTa_8rbJ0-39">
          <mxGeometry relative="1" as="geometry" />
        </mxCell>
        <mxCell id="OuAqoAczvBelTa_8rbJ0-38" value="&lt;div&gt;&lt;span style=&quot;font-size: 12px;&quot;&gt;检修计划停电范围&lt;/span&gt;&lt;/div&gt;&lt;div&gt;&lt;span style=&quot;font-size: 12px;&quot;&gt;数据对象组装&lt;/span&gt;&lt;/div&gt;" style="whiteSpace=wrap;html=1;fontSize=8;fontFamily=Verdana;rounded=0;shadow=0;labelBackgroundColor=none;strokeWidth=1;" vertex="1" parent="77e6c97f196da883-7">
          <mxGeometry x="30" y="450" width="100" height="60" as="geometry" />
        </mxCell>
        <mxCell id="OuAqoAczvBelTa_8rbJ0-45" value="" style="edgeStyle=orthogonalEdgeStyle;rounded=0;orthogonalLoop=1;jettySize=auto;html=1;" edge="1" parent="77e6c97f196da883-7" source="OuAqoAczvBelTa_8rbJ0-39" target="OuAqoAczvBelTa_8rbJ0-40">
          <mxGeometry relative="1" as="geometry" />
        </mxCell>
        <mxCell id="OuAqoAczvBelTa_8rbJ0-39" value="&lt;span style=&quot;font-size: 12px;&quot;&gt;设置&lt;/span&gt;&lt;div&gt;&lt;span style=&quot;font-size: 12px;&quot;&gt;检修计划停电范围&lt;/span&gt;&lt;/div&gt;&lt;div&gt;&lt;span style=&quot;font-size: 12px;&quot;&gt;的调度接收单位&lt;/span&gt;&lt;/div&gt;" style="whiteSpace=wrap;html=1;fontSize=8;fontFamily=Verdana;rounded=0;shadow=0;labelBackgroundColor=none;strokeWidth=1;" vertex="1" parent="77e6c97f196da883-7">
          <mxGeometry x="30" y="540" width="100" height="60" as="geometry" />
        </mxCell>
        <mxCell id="OuAqoAczvBelTa_8rbJ0-40" value="&lt;div&gt;&lt;span style=&quot;font-size: 12px;&quot;&gt;停电边界设备&lt;/span&gt;&lt;/div&gt;&lt;div&gt;&lt;span style=&quot;font-size: 12px;&quot;&gt;检修计划停电范围&lt;/span&gt;&lt;span style=&quot;font-size: 12px;&quot;&gt;&lt;/span&gt;&lt;/div&gt;&lt;div&gt;&lt;span style=&quot;font-size: 12px;&quot;&gt;保存到数据库&lt;/span&gt;&lt;/div&gt;" style="whiteSpace=wrap;html=1;fontSize=8;fontFamily=Verdana;rounded=0;shadow=0;labelBackgroundColor=none;strokeWidth=1;" vertex="1" parent="77e6c97f196da883-7">
          <mxGeometry x="30" y="630" width="100" height="60" as="geometry" />
        </mxCell>
        <mxCell id="cfTg0l-f0pAShHveTOmt-28" value="" style="edgeStyle=orthogonalEdgeStyle;rounded=0;orthogonalLoop=1;jettySize=auto;html=1;" parent="77e6c97f196da883-1" source="cfTg0l-f0pAShHveTOmt-1" target="cfTg0l-f0pAShHveTOmt-27" edge="1">
          <mxGeometry relative="1" as="geometry" />
        </mxCell>
        <mxCell id="cfTg0l-f0pAShHveTOmt-60" value="查询到" style="edgeLabel;html=1;align=center;verticalAlign=middle;resizable=0;points=[];" parent="cfTg0l-f0pAShHveTOmt-28" vertex="1" connectable="0">
          <mxGeometry x="-0.5771" relative="1" as="geometry">
            <mxPoint as="offset" />
          </mxGeometry>
        </mxCell>
        <mxCell id="cfTg0l-f0pAShHveTOmt-45" style="edgeStyle=orthogonalEdgeStyle;rounded=0;orthogonalLoop=1;jettySize=auto;html=1;exitX=1;exitY=0.5;exitDx=0;exitDy=0;entryX=0;entryY=0.5;entryDx=0;entryDy=0;" parent="77e6c97f196da883-1" source="cfTg0l-f0pAShHveTOmt-27" target="cfTg0l-f0pAShHveTOmt-33" edge="1">
          <mxGeometry relative="1" as="geometry" />
        </mxCell>
        <mxCell id="cfTg0l-f0pAShHveTOmt-61" value="查询到" style="edgeLabel;html=1;align=center;verticalAlign=middle;resizable=0;points=[];" parent="cfTg0l-f0pAShHveTOmt-45" vertex="1" connectable="0">
          <mxGeometry x="-0.5067" y="-1" relative="1" as="geometry">
            <mxPoint as="offset" />
          </mxGeometry>
        </mxCell>
        <mxCell id="cfTg0l-f0pAShHveTOmt-50" value="" style="edgeStyle=orthogonalEdgeStyle;rounded=0;orthogonalLoop=1;jettySize=auto;html=1;" parent="77e6c97f196da883-1" source="cfTg0l-f0pAShHveTOmt-33" edge="1">
          <mxGeometry relative="1" as="geometry">
            <mxPoint x="510" y="217.5" as="targetPoint" />
          </mxGeometry>
        </mxCell>
        <mxCell id="cfTg0l-f0pAShHveTOmt-62" value="否" style="edgeLabel;html=1;align=center;verticalAlign=middle;resizable=0;points=[];" parent="cfTg0l-f0pAShHveTOmt-50" vertex="1" connectable="0">
          <mxGeometry x="-0.5733" relative="1" as="geometry">
            <mxPoint as="offset" />
          </mxGeometry>
        </mxCell>
        <mxCell id="cfTg0l-f0pAShHveTOmt-59" value="数据完善并保存" style="swimlane;html=1;startSize=20;" parent="77e6c97f196da883-1" vertex="1">
          <mxGeometry x="800" y="20" width="160" height="1270" as="geometry" />
        </mxCell>
        <mxCell id="cfTg0l-f0pAShHveTOmt-82" style="edgeStyle=orthogonalEdgeStyle;rounded=0;orthogonalLoop=1;jettySize=auto;html=1;exitX=0.5;exitY=1;exitDx=0;exitDy=0;entryX=0.5;entryY=0;entryDx=0;entryDy=0;" parent="cfTg0l-f0pAShHveTOmt-59" source="cfTg0l-f0pAShHveTOmt-80" target="cfTg0l-f0pAShHveTOmt-81" edge="1">
          <mxGeometry relative="1" as="geometry" />
        </mxCell>
        <mxCell id="cfTg0l-f0pAShHveTOmt-80" value="&lt;div&gt;&lt;span style=&quot;font-size: 12px;&quot;&gt;检修计划&lt;/span&gt;&lt;/div&gt;&lt;div&gt;&lt;span style=&quot;font-size: 12px;&quot;&gt;变动数据更新&lt;/span&gt;&lt;/div&gt;" style="whiteSpace=wrap;html=1;fontSize=8;fontFamily=Verdana;rounded=0;shadow=0;labelBackgroundColor=none;strokeWidth=1;" parent="cfTg0l-f0pAShHveTOmt-59" vertex="1">
          <mxGeometry x="30" y="170" width="100" height="60" as="geometry" />
        </mxCell>
        <mxCell id="OuAqoAczvBelTa_8rbJ0-58" style="edgeStyle=orthogonalEdgeStyle;rounded=0;orthogonalLoop=1;jettySize=auto;html=1;exitX=0.5;exitY=1;exitDx=0;exitDy=0;entryX=0.5;entryY=0;entryDx=0;entryDy=0;" edge="1" parent="cfTg0l-f0pAShHveTOmt-59" source="cfTg0l-f0pAShHveTOmt-81" target="cfTg0l-f0pAShHveTOmt-83">
          <mxGeometry relative="1" as="geometry" />
        </mxCell>
        <mxCell id="cfTg0l-f0pAShHveTOmt-81" value="&lt;span style=&quot;font-size: 12px;&quot;&gt;更新陪停计划的&lt;/span&gt;&lt;div&gt;&lt;div&gt;&lt;span style=&quot;font-size: 12px;&quot;&gt;工作开始结束时间&lt;/span&gt;&lt;/div&gt;&lt;div&gt;&lt;span style=&quot;font-size: 12px;&quot;&gt;停电开始结束时间&lt;/span&gt;&lt;/div&gt;&lt;/div&gt;" style="whiteSpace=wrap;html=1;fontSize=8;fontFamily=Verdana;rounded=0;shadow=0;labelBackgroundColor=none;strokeWidth=1;" parent="cfTg0l-f0pAShHveTOmt-59" vertex="1">
          <mxGeometry x="30" y="270" width="100" height="60" as="geometry" />
        </mxCell>
        <mxCell id="cfTg0l-f0pAShHveTOmt-85" style="edgeStyle=orthogonalEdgeStyle;rounded=0;orthogonalLoop=1;jettySize=auto;html=1;exitX=0.5;exitY=1;exitDx=0;exitDy=0;entryX=0.5;entryY=0;entryDx=0;entryDy=0;" parent="cfTg0l-f0pAShHveTOmt-59" source="cfTg0l-f0pAShHveTOmt-83" target="cfTg0l-f0pAShHveTOmt-84" edge="1">
          <mxGeometry relative="1" as="geometry" />
        </mxCell>
        <mxCell id="cfTg0l-f0pAShHveTOmt-83" value="&lt;span style=&quot;font-size: 12px;&quot;&gt;变更停电申请单&lt;/span&gt;" style="whiteSpace=wrap;html=1;fontSize=8;fontFamily=Verdana;rounded=0;shadow=0;labelBackgroundColor=none;strokeWidth=1;" parent="cfTg0l-f0pAShHveTOmt-59" vertex="1">
          <mxGeometry x="30" y="360" width="100" height="60" as="geometry" />
        </mxCell>
        <mxCell id="cfTg0l-f0pAShHveTOmt-87" value="" style="edgeStyle=orthogonalEdgeStyle;rounded=0;orthogonalLoop=1;jettySize=auto;html=1;" parent="cfTg0l-f0pAShHveTOmt-59" source="cfTg0l-f0pAShHveTOmt-84" target="cfTg0l-f0pAShHveTOmt-86" edge="1">
          <mxGeometry relative="1" as="geometry" />
        </mxCell>
        <mxCell id="cfTg0l-f0pAShHveTOmt-84" value="&lt;div&gt;&lt;span style=&quot;font-size: 12px;&quot;&gt;检修发送内容配置&lt;/span&gt;&lt;/div&gt;&lt;div&gt;&lt;span style=&quot;font-size: 12px;&quot;&gt;数据组装并入库&lt;/span&gt;&lt;/div&gt;" style="whiteSpace=wrap;html=1;fontSize=8;fontFamily=Verdana;rounded=0;shadow=0;labelBackgroundColor=none;strokeWidth=1;" parent="cfTg0l-f0pAShHveTOmt-59" vertex="1">
          <mxGeometry x="30" y="450" width="100" height="60" as="geometry" />
        </mxCell>
        <mxCell id="cfTg0l-f0pAShHveTOmt-89" style="edgeStyle=orthogonalEdgeStyle;rounded=0;orthogonalLoop=1;jettySize=auto;html=1;exitX=0.5;exitY=1;exitDx=0;exitDy=0;entryX=0.5;entryY=0;entryDx=0;entryDy=0;" parent="cfTg0l-f0pAShHveTOmt-59" source="cfTg0l-f0pAShHveTOmt-86" target="cfTg0l-f0pAShHveTOmt-88" edge="1">
          <mxGeometry relative="1" as="geometry" />
        </mxCell>
        <mxCell id="cfTg0l-f0pAShHveTOmt-86" value="&lt;div&gt;&lt;span style=&quot;font-size: 12px;&quot;&gt;更新班组信息&lt;/span&gt;&lt;/div&gt;" style="whiteSpace=wrap;html=1;fontSize=8;fontFamily=Verdana;rounded=0;shadow=0;labelBackgroundColor=none;strokeWidth=1;" parent="cfTg0l-f0pAShHveTOmt-59" vertex="1">
          <mxGeometry x="30" y="540" width="100" height="60" as="geometry" />
        </mxCell>
        <mxCell id="cfTg0l-f0pAShHveTOmt-92" style="edgeStyle=orthogonalEdgeStyle;rounded=0;orthogonalLoop=1;jettySize=auto;html=1;exitX=0.5;exitY=1;exitDx=0;exitDy=0;entryX=0.5;entryY=0;entryDx=0;entryDy=0;" parent="cfTg0l-f0pAShHveTOmt-59" source="cfTg0l-f0pAShHveTOmt-88" target="cfTg0l-f0pAShHveTOmt-108" edge="1">
          <mxGeometry relative="1" as="geometry">
            <mxPoint x="80" y="800" as="targetPoint" />
          </mxGeometry>
        </mxCell>
        <mxCell id="cfTg0l-f0pAShHveTOmt-88" value="&lt;span style=&quot;font-size: 12px;&quot;&gt;更新检修扩展属性&lt;/span&gt;&lt;div&gt;&lt;span style=&quot;font-size: 12px;&quot;&gt;数据&lt;/span&gt;&lt;/div&gt;" style="whiteSpace=wrap;html=1;fontSize=8;fontFamily=Verdana;rounded=0;shadow=0;labelBackgroundColor=none;strokeWidth=1;" parent="cfTg0l-f0pAShHveTOmt-59" vertex="1">
          <mxGeometry x="30" y="630" width="100" height="60" as="geometry" />
        </mxCell>
        <mxCell id="cfTg0l-f0pAShHveTOmt-108" value="&lt;span style=&quot;font-size: 12px;&quot;&gt;成功返回&lt;/span&gt;" style="whiteSpace=wrap;html=1;fontSize=8;fontFamily=Verdana;rounded=0;shadow=0;labelBackgroundColor=none;strokeWidth=1;" parent="cfTg0l-f0pAShHveTOmt-59" vertex="1">
          <mxGeometry x="30" y="1175" width="100" height="60" as="geometry" />
        </mxCell>
        <mxCell id="OuAqoAczvBelTa_8rbJ0-46" style="edgeStyle=orthogonalEdgeStyle;rounded=0;orthogonalLoop=1;jettySize=auto;html=1;exitX=0.5;exitY=1;exitDx=0;exitDy=0;entryX=0.5;entryY=0;entryDx=0;entryDy=0;" edge="1" parent="77e6c97f196da883-1" source="cfTg0l-f0pAShHveTOmt-76" target="OuAqoAczvBelTa_8rbJ0-35">
          <mxGeometry relative="1" as="geometry">
            <Array as="points">
              <mxPoint x="560" y="1110" />
              <mxPoint x="650" y="1110" />
              <mxPoint x="650" y="120" />
              <mxPoint x="720" y="120" />
            </Array>
          </mxGeometry>
        </mxCell>
        <mxCell id="OuAqoAczvBelTa_8rbJ0-52" style="edgeStyle=orthogonalEdgeStyle;rounded=0;orthogonalLoop=1;jettySize=auto;html=1;exitX=0.5;exitY=1;exitDx=0;exitDy=0;entryX=0.5;entryY=0;entryDx=0;entryDy=0;" edge="1" parent="77e6c97f196da883-1" source="OuAqoAczvBelTa_8rbJ0-40" target="cfTg0l-f0pAShHveTOmt-80">
          <mxGeometry relative="1" as="geometry">
            <mxPoint x="790" y="105.42855398995536" as="targetPoint" />
            <Array as="points">
              <mxPoint x="720" y="730" />
              <mxPoint x="790" y="730" />
              <mxPoint x="790" y="120" />
              <mxPoint x="880" y="120" />
            </Array>
          </mxGeometry>
        </mxCell>
      </root>
    </mxGraphModel>
  </diagram>
</mxfile>
